<svg width="50" height="50" viewBox="0 0 38 38" fill="none" xmlns="http://www.w3.org/2000/svg">
<mask id="mask0_68_53" style="mask-type:alpha" maskUnits="userSpaceOnUse" x="0" y="0" width="38" height="38">
<rect width="38" height="38" fill="#000"/>
</mask>
<g mask="url(#mask0_68_53)">
<rect x="4" y="11" width="30.0444" height="15.6532" rx="1" stroke="#fff" stroke-width="2"/>
<path d="M8.03405 14.787H10.5361C11.6066 14.787 12.4168 14.9373 12.9667 15.2379C13.5166 15.5385 13.7916 16.0665 13.7916 16.8217C13.7916 17.1259 13.7421 17.4009 13.6431 17.6465C13.5478 17.8922 13.4085 18.0938 13.2252 18.2514C13.0419 18.4091 12.8182 18.5117 12.5543 18.5594V18.6144C12.8219 18.6694 13.0639 18.7647 13.2802 18.9003C13.4965 19.0323 13.6688 19.2266 13.7971 19.4832C13.9291 19.7362 13.995 20.0735 13.995 20.4951C13.995 20.9826 13.8759 21.4006 13.6376 21.7488C13.3993 22.0971 13.0584 22.3647 12.6148 22.5517C12.1749 22.735 11.6506 22.8267 11.042 22.8267H8.03405V14.787ZM9.73876 17.971H10.7286C11.2235 17.971 11.5663 17.894 11.7569 17.74C11.9476 17.5824 12.0429 17.3514 12.0429 17.0471C12.0429 16.7392 11.9292 16.5192 11.7019 16.3872C11.4783 16.2516 11.1227 16.1838 10.6351 16.1838H9.73876V17.971ZM9.73876 19.3237V21.4189H10.8496C11.3628 21.4189 11.7203 21.3199 11.9219 21.1219C12.1235 20.924 12.2243 20.6582 12.2243 20.3246C12.2243 20.1266 12.1804 19.9525 12.0924 19.8022C12.0044 19.6519 11.8559 19.5345 11.6469 19.4502C11.4416 19.3659 11.1575 19.3237 10.7946 19.3237H9.73876ZM18.7023 22.8267H16.9975V16.2058H14.8144V14.787H20.8854V16.2058H18.7023V22.8267ZM29.255 22.8267H27.0884L23.5909 16.7447H23.5414C23.5561 16.9976 23.5689 17.2524 23.5799 17.5091C23.5909 17.7657 23.6019 18.0223 23.6129 18.2789C23.6239 18.5319 23.6349 18.7867 23.6459 19.0433V22.8267H22.1227V14.787H24.2728L27.7647 20.8085H27.8032C27.7959 20.5592 27.7867 20.3117 27.7757 20.0661C27.7647 19.8205 27.7537 19.5749 27.7427 19.3292C27.7354 19.0836 27.7281 18.838 27.7207 18.5924V14.787H29.255V22.8267Z" fill="#fff"/>
</g>
</svg>
