<svg xmlns="http://www.w3.org/2000/svg" width="38" height="38" viewBox="0 0 38 38" fill="none">
  <mask id="mask0_33_67" style="mask-type:alpha" maskUnits="userSpaceOnUse" x="0" y="0" width="38" height="38">
    <rect width="38" height="38" fill="#D9D9D9"/>
  </mask>
  <g mask="url(#mask0_33_67)">
    <path d="M12.6666 28.4998C11.7958 28.4998 11.0503 28.1898 10.4302 27.5696C9.81003 26.9495 9.49996 26.204 9.49996 25.3332V6.33317C9.49996 5.46234 9.81003 4.71685 10.4302 4.09671C11.0503 3.47657 11.7958 3.1665 12.6666 3.1665H31.6666C32.5375 3.1665 33.2829 3.47657 33.9031 4.09671C34.5232 4.71685 34.8333 5.46234 34.8333 6.33317V25.3332C34.8333 26.204 34.5232 26.9495 33.9031 27.5696C33.2829 28.1898 32.5375 28.4998 31.6666 28.4998H12.6666ZM12.6666 25.3332H31.6666V6.33317H12.6666V25.3332ZM6.33329 34.8332C5.46246 34.8332 4.71697 34.5231 4.09683 33.903C3.4767 33.2828 3.16663 32.5373 3.16663 31.6665V11.0832C3.16663 10.6346 3.31836 10.2585 3.62183 9.95505C3.92531 9.65157 4.30135 9.49984 4.74996 9.49984C5.19857 9.49984 5.57461 9.65157 5.87808 9.95505C6.18156 10.2585 6.33329 10.6346 6.33329 11.0832V31.6665H26.9166C27.3652 31.6665 27.7413 31.8182 28.0448 32.1217C28.3482 32.4252 28.5 32.8012 28.5 33.2498C28.5 33.6984 28.3482 34.0745 28.0448 34.378C27.7413 34.6814 27.3652 34.8332 26.9166 34.8332H6.33329ZM19.95 20.2665L22.1666 18.0498L24.3833 20.2665C24.6736 20.5568 25.043 20.7019 25.4916 20.7019C25.9402 20.7019 26.3097 20.5568 26.6 20.2665C26.8902 19.9762 27.0354 19.6068 27.0354 19.1582C27.0354 18.7096 26.8902 18.3401 26.6 18.0498L24.3833 15.8332L26.6 13.6165C26.8902 13.3262 27.0354 12.9568 27.0354 12.5082C27.0354 12.0596 26.8902 11.6901 26.6 11.3998C26.3097 11.1096 25.9402 10.9644 25.4916 10.9644C25.043 10.9644 24.6736 11.1096 24.3833 11.3998L22.1666 13.6165L19.95 11.3998C19.6597 11.1096 19.2902 10.9644 18.8416 10.9644C18.393 10.9644 18.0236 11.1096 17.7333 11.3998C17.443 11.6901 17.2979 12.0596 17.2979 12.5082C17.2979 12.9568 17.443 13.3262 17.7333 13.6165L19.95 15.8332L17.7333 18.0498C17.443 18.3401 17.2979 18.7096 17.2979 19.1582C17.2979 19.6068 17.443 19.9762 17.7333 20.2665C18.0236 20.5568 18.393 20.7019 18.8416 20.7019C19.2902 20.7019 19.6597 20.5568 19.95 20.2665Z" fill="#fff"/>
  </g>
</svg>