<svg xmlns="http://www.w3.org/2000/svg" width="38" height="38" viewBox="0 0 38 38" fill="none">
  <mask id="mask0_31_61" style="mask-type:alpha" maskUnits="userSpaceOnUse" x="0" y="0" width="38" height="38">
    <rect width="38" height="38" fill="#D9D9D9"/>
  </mask>
  <g mask="url(#mask0_31_61)">
    <path d="M6.33329 30.0832C5.46246 30.0832 4.71697 29.7731 4.09683 29.153C3.4767 28.5328 3.16663 27.7873 3.16663 26.9165V11.0832C3.16663 10.2123 3.4767 9.46685 4.09683 8.84671C4.71697 8.22657 5.46246 7.9165 6.33329 7.9165H31.6666C32.5375 7.9165 33.2829 8.22657 33.9031 8.84671C34.5232 9.46685 34.8333 10.2123 34.8333 11.0832V26.9165C34.8333 27.7873 34.5232 28.5328 33.9031 29.153C33.2829 29.7731 32.5375 30.0832 31.6666 30.0832H6.33329ZM22.1666 17.4165H31.6666V11.0832H22.1666V17.4165ZM6.33329 26.9165H19V11.0832H6.33329V26.9165ZM12.6666 21.3748C12.0069 21.3748 11.4461 21.1439 10.9843 20.6821C10.5225 20.2203 10.2916 19.6596 10.2916 18.9998C10.2916 18.3401 10.5225 17.7794 10.9843 17.3175C11.4461 16.8557 12.0069 16.6248 12.6666 16.6248C13.3263 16.6248 13.8871 16.8557 14.3489 17.3175C14.8107 17.7794 15.0416 18.3401 15.0416 18.9998C15.0416 19.6596 14.8107 20.2203 14.3489 20.6821C13.8871 21.1439 13.3263 21.3748 12.6666 21.3748ZM22.1666 26.9165H31.6666V20.5832H22.1666V26.9165Z" fill="#fff"/>
  </g>
</svg>