<svg xmlns="http://www.w3.org/2000/svg" width="38" height="38" viewBox="0 0 38 38" fill="none">
  <mask id="mask0_31_49" style="mask-type:alpha" maskUnits="userSpaceOnUse" x="0" y="0" width="38" height="38">
    <rect width="38" height="38" fill="#D9D9D9"/>
  </mask>
  <g mask="url(#mask0_31_49)">
    <path d="M4.75004 30.0832C3.87921 30.0832 3.13372 29.7731 2.51358 29.153C1.89344 28.5328 1.58337 27.7873 1.58337 26.9165V11.0832C1.58337 10.2123 1.89344 9.46685 2.51358 8.84671C3.13372 8.22657 3.87921 7.9165 4.75004 7.9165H20.5834C21.4542 7.9165 22.1997 8.22657 22.8198 8.84671C23.44 9.46685 23.75 10.2123 23.75 11.0832V26.9165C23.75 27.7873 23.44 28.5328 22.8198 29.153C22.1997 29.7731 21.4542 30.0832 20.5834 30.0832H4.75004ZM28.5 17.4165C28.0514 17.4165 27.6754 17.2648 27.3719 16.9613C27.0684 16.6578 26.9167 16.2818 26.9167 15.8332V9.49984C26.9167 9.05123 27.0684 8.67518 27.3719 8.37171C27.6754 8.06824 28.0514 7.9165 28.5 7.9165H34.8334C35.282 7.9165 35.658 8.06824 35.9615 8.37171C36.265 8.67518 36.4167 9.05123 36.4167 9.49984V15.8332C36.4167 16.2818 36.265 16.6578 35.9615 16.9613C35.658 17.2648 35.282 17.4165 34.8334 17.4165H28.5ZM30.0834 14.2498H33.25V11.0832H30.0834V14.2498ZM4.75004 26.9165H20.5834V11.0832H4.75004V26.9165ZM7.91671 23.7498H17.4167C17.7334 23.7498 17.9709 23.6047 18.1292 23.3144C18.2875 23.0241 18.2612 22.7471 18.05 22.4832L15.4771 19.0394C15.3188 18.8283 15.1077 18.7228 14.8438 18.7228C14.5799 18.7228 14.3688 18.8283 14.2105 19.0394L11.875 22.1665L10.3313 20.1082C10.173 19.8971 9.96185 19.7915 9.69796 19.7915C9.43407 19.7915 9.22296 19.8971 9.06462 20.1082L7.28337 22.4832C7.07226 22.7471 7.04587 23.0241 7.20421 23.3144C7.36254 23.6047 7.60004 23.7498 7.91671 23.7498ZM28.5 30.0832C28.0514 30.0832 27.6754 29.9314 27.3719 29.628C27.0684 29.3245 26.9167 28.9484 26.9167 28.4998V22.1665C26.9167 21.7179 27.0684 21.3419 27.3719 21.0384C27.6754 20.7349 28.0514 20.5832 28.5 20.5832H34.8334C35.282 20.5832 35.658 20.7349 35.9615 21.0384C36.265 21.3419 36.4167 21.7179 36.4167 22.1665V28.4998C36.4167 28.9484 36.265 29.3245 35.9615 29.628C35.658 29.9314 35.282 30.0832 34.8334 30.0832H28.5ZM30.0834 26.9165H33.25V23.7498H30.0834V26.9165Z" fill="#fff"/>
  </g>
</svg>