<svg xmlns="http://www.w3.org/2000/svg" width="38" height="38" viewBox="0 0 38 38" fill="none">
  <mask id="mask0_37_103" style="mask-type:alpha" maskUnits="userSpaceOnUse" x="0" y="0" width="38" height="38">
    <rect width="38" height="38" fill="#D9D9D9"/>
  </mask>
  <g mask="url(#mask0_37_103)">
    <path d="M7.91667 33.25C7.04583 33.25 6.30035 32.9399 5.68021 32.3198C5.06007 31.6997 4.75 30.9542 4.75 30.0833V7.91667C4.75 7.04583 5.06007 6.30035 5.68021 5.68021C6.30035 5.06007 7.04583 4.75 7.91667 4.75H30.0833C30.9542 4.75 31.6997 5.06007 32.3198 5.68021C32.9399 6.30035 33.25 7.04583 33.25 7.91667V30.0833C33.25 30.9542 32.9399 31.6997 32.3198 32.3198C31.6997 32.9399 30.9542 33.25 30.0833 33.25H7.91667ZM7.91667 30.0833H30.0833V7.91667H7.91667V30.0833ZM17.4167 23.75H19.7917V14.25H17.4167V23.75ZM11.0833 23.75H14.25C14.6986 23.75 15.0747 23.5983 15.3781 23.2948C15.6816 22.9913 15.8333 22.6153 15.8333 22.1667V19H13.4583V21.375H11.875V16.625H15.8333V15.8333C15.8333 15.3847 15.6816 15.0087 15.3781 14.7052C15.0747 14.4017 14.6986 14.25 14.25 14.25H11.0833C10.6347 14.25 10.2587 14.4017 9.95521 14.7052C9.65174 15.0087 9.5 15.3847 9.5 15.8333V22.1667C9.5 22.6153 9.65174 22.9913 9.95521 23.2948C10.2587 23.5983 10.6347 23.75 11.0833 23.75ZM22.1667 23.75H24.5417V20.5833H27.7083V18.2083H24.5417V16.625H29.2917V14.25H22.1667V23.75Z" fill="#fff"/>
  </g>
</svg>