<svg xmlns="http://www.w3.org/2000/svg" width="38" height="38" viewBox="0 0 38 38" fill="none">
  <mask id="mask0_31_55" style="mask-type:alpha" maskUnits="userSpaceOnUse" x="0" y="0" width="38" height="38">
    <rect width="38" height="38" fill="#D9D9D9"/>
  </mask>
  <g mask="url(#mask0_31_55)">
    <path d="M16.625 11.0835H10.2916C9.6319 11.0835 9.07114 10.8526 8.60933 10.3908C8.14753 9.92898 7.91663 9.36822 7.91663 8.7085C7.91663 8.04877 8.14753 7.48801 8.60933 7.0262C9.07114 6.5644 9.6319 6.3335 10.2916 6.3335H27.7083C28.368 6.3335 28.9288 6.5644 29.3906 7.0262C29.8524 7.48801 30.0833 8.04877 30.0833 8.7085C30.0833 9.36822 29.8524 9.92898 29.3906 10.3908C28.9288 10.8526 28.368 11.0835 27.7083 11.0835H21.375V29.2918C21.375 29.9516 21.1441 30.5123 20.6823 30.9741C20.2204 31.4359 19.6597 31.6668 19 31.6668C18.3402 31.6668 17.7795 31.4359 17.3177 30.9741C16.8559 30.5123 16.625 29.9516 16.625 29.2918V11.0835Z" fill="#fff"/>
  </g>
</svg>