<svg xmlns="http://www.w3.org/2000/svg" width="28" height="28" viewBox="0 0 28 28" fill="none">
  <mask id="mask0_4434_1098" style="mask-type:alpha" maskUnits="userSpaceOnUse" x="0" y="0" width="28" height="28">
    <rect x="0.457031" y="0.655334" width="26.5896" height="26.5896" fill="#D9D9D9"/>
  </mask>
  <g mask="url(#mask0_4434_1098)">
    <path d="M9.76243 19.4887L13.7509 15.5002L17.7393 19.4887L19.2904 17.9376L15.3019 13.9492L19.2904 9.96074L17.7393 8.40968L13.7509 12.3981L9.76243 8.40968L8.21137 9.96074L12.1998 13.9492L8.21137 17.9376L9.76243 19.4887ZM13.7509 25.0282C12.2183 25.0282 10.778 24.7374 9.43006 24.1557C8.08212 23.5741 6.90959 22.7847 5.91248 21.7876C4.91537 20.7905 4.12599 19.6179 3.54435 18.27C2.9627 16.922 2.67188 15.4818 2.67188 13.9492C2.67188 12.4166 2.9627 10.9763 3.54435 9.62837C4.12599 8.28042 4.91537 7.10789 5.91248 6.11079C6.90959 5.11368 8.08212 4.3243 9.43006 3.74265C10.778 3.161 12.2183 2.87018 13.7509 2.87018C15.2835 2.87018 16.7237 3.161 18.0717 3.74265C19.4196 4.3243 20.5922 5.11368 21.5893 6.11079C22.5864 7.10789 23.3758 8.28042 23.9574 9.62837C24.539 10.9763 24.8299 12.4166 24.8299 13.9492C24.8299 15.4818 24.539 16.922 23.9574 18.27C23.3758 19.6179 22.5864 20.7905 21.5893 21.7876C20.5922 22.7847 19.4196 23.5741 18.0717 24.1557C16.7237 24.7374 15.2835 25.0282 13.7509 25.0282Z" fill="#1C1B1F"/>
  </g>
</svg>