<svg xmlns="http://www.w3.org/2000/svg" width="14" height="18" viewBox="0 0 14 18" fill="none">
  <g clip-path="url(#clip0_2504_3)">
    <path fill-rule="evenodd" clip-rule="evenodd" d="M3.18257 0.0452728H9.80327L14 4.5856V15.1456C14 16.1945 13.1367 17.0578 12.0878 17.0578H3.18257C2.1334 17.0578 1.27039 16.1974 1.27039 15.1456V1.95742C1.27039 0.905624 2.13077 0.0452728 3.18257 0.0452728Z" fill="#E44B4D"/>
    <path fill-rule="evenodd" clip-rule="evenodd" d="M11.3406 4.48117H11.34L14 6.32222V4.59081H12.1924C11.8779 4.58582 11.5939 4.54844 11.3406 4.48117Z" fill="#CD4445"/>
    <path fill-rule="evenodd" clip-rule="evenodd" d="M9.80334 0.0447998L14 4.58509V4.59081H12.1924C10.6937 4.56693 9.88691 3.81276 9.80334 2.54954V0.0447998Z" fill="#FBCFD0"/>
    <path d="M0 14.4073V8.47154L0.000931116 8.42961C0.0231449 7.88271 0.477563 7.44176 1.02968 7.44176H1.27038V9.12405H12.6757C13.1034 9.12405 13.453 9.47355 13.453 9.90123V14.4073C13.453 14.834 13.1024 15.1846 12.6757 15.1846H0.777249C0.350532 15.1846 0 14.8346 0 14.4073Z" fill="#CD4445"/>
    <path d="M4.77021 8.03789C4.73311 8.03789 4.69637 8.03059 4.66209 8.01639C4.62781 8.00218 4.59666 7.98137 4.57043 7.95513C4.54419 7.92889 4.52338 7.89774 4.50918 7.86346C4.49499 7.82918 4.48768 7.79244 4.48769 7.75533C4.48768 7.71823 4.49499 7.68149 4.50918 7.64721C4.52338 7.61292 4.54419 7.58177 4.57043 7.55554C4.59666 7.5293 4.62781 7.50848 4.66209 7.49428C4.69637 7.48008 4.73311 7.47277 4.77021 7.47277H10.1965C10.2336 7.47277 10.2703 7.48008 10.3046 7.49428C10.3389 7.50848 10.37 7.5293 10.3963 7.55554C10.4225 7.58177 10.4433 7.61292 10.4575 7.64721C10.4717 7.68149 10.479 7.71823 10.479 7.75533C10.479 7.79244 10.4717 7.82918 10.4575 7.86346C10.4433 7.89774 10.4225 7.92889 10.3963 7.95513C10.37 7.98137 10.3389 8.00218 10.3046 8.01639C10.2703 8.03059 10.2336 8.03789 10.1965 8.03789H4.77021ZM4.77021 6.07005C4.69528 6.07005 4.62341 6.04028 4.57043 5.98729C4.51744 5.9343 4.48767 5.86244 4.48767 5.7875C4.48767 5.71257 4.51744 5.6407 4.57043 5.58771C4.62341 5.53473 4.69528 5.50496 4.77021 5.50496H10.5C10.575 5.50496 10.6468 5.53473 10.6998 5.58771C10.7528 5.6407 10.7826 5.71257 10.7826 5.7875C10.7826 5.86244 10.7528 5.9343 10.6998 5.98729C10.6468 6.04028 10.575 6.07005 10.5 6.07005H4.77021Z" fill="#963232"/>
    <path d="M0.376709 9.22864V14.374C0.376709 14.6331 0.58887 14.8455 0.84822 14.8455H12.6424C12.9017 14.8455 13.1138 14.6333 13.1138 14.374V9.93476C13.1138 9.67544 12.9014 9.46328 12.6424 9.46328H1.26004C0.840438 9.46009 0.608723 9.40881 0.376709 9.22864Z" fill="white"/>
    <path d="M5.57975 11.3726H4.94796V13.3987H4.0765V11.3726H3.4447V10.6754H5.57975V11.3726ZM7.88912 11.3726H7.25729V13.3987H6.38583V11.3726H5.75404V10.6754H7.88912V11.3726ZM9.87167 12.3878H9.13086V13.3987H8.25944V10.6754H10.046L9.93704 11.3726H9.13086V11.7386H9.87167V12.3878Z" fill="#1A1A1A"/>
  </g>
  <defs>
    <clipPath id="clip0_2504_3">
      <rect width="14" height="17.013" fill="white" transform="translate(0 0.0447998)"/>
    </clipPath>
  </defs>
</svg>