<svg xmlns="http://www.w3.org/2000/svg" width="90" height="21" viewBox="0 0 90 21" fill="none">
    <path
        d="M30.2086 16.6798L35.4736 8.40763L36.8387 11.3392L33.8227 16.6798H30.2086ZM30.4084 1.90332H34.1233L43.765 16.6798H40.0072L30.4084 1.90332ZM37.0356 7.32382L40.0872 1.90332H43.6169L38.537 9.83346L37.0356 7.32382Z"
        fill="#231F20" />
    <path
        d="M50.8069 16.6783C50.2811 16.6759 49.7604 16.5754 49.2715 16.3821C48.7944 16.2047 48.3647 15.9194 48.0159 15.5486L48.0974 14.7253V20.6478H45.3049V7.46149H47.7154L48.1166 9.16863L47.896 8.56602C48.3568 8.1743 48.8707 7.84979 49.4225 7.60214C50.037 7.33807 50.7008 7.20834 51.3695 7.22163C52.1375 7.20847 52.8944 7.40614 53.5578 7.79314C54.2101 8.18595 54.7362 8.75727 55.074 9.43958C55.4432 10.1562 55.6272 11.0164 55.6263 12.0203C55.6253 13.0241 55.418 13.8676 55.0044 14.5506C54.6019 15.2342 54.0086 15.7853 53.2973 16.1364C52.521 16.5096 51.668 16.6952 50.8069 16.6783ZM50.2457 14.4692C50.6818 14.4755 51.1126 14.3738 51.4998 14.1731C51.8777 13.9755 52.1965 13.6812 52.4237 13.3203C52.6598 12.9446 52.7817 12.5084 52.7746 12.0647C52.7852 11.6132 52.678 11.1667 52.4637 10.7692C52.2648 10.4093 51.9722 10.1101 51.6168 9.90337C51.2615 9.69662 50.8567 9.59007 50.4456 9.59505C50.1085 9.58824 49.7726 9.63829 49.4521 9.74311C49.1714 9.83996 48.9123 9.99086 48.6896 10.1873C48.4568 10.3958 48.2628 10.6439 48.1166 10.9202V13.0685C48.2203 13.3433 48.3773 13.5949 48.5786 13.8089C48.7853 14.0262 49.0383 14.1942 49.3189 14.3004C49.6144 14.4145 49.9289 14.4718 50.2457 14.4692Z"
        fill="#231F20" />
    <path d="M57.1069 0.837891H59.92V16.6804H57.1069V0.837891Z" fill="#231F20" />
    <path
        d="M61.3992 11.9414C61.3856 11.0952 61.6042 10.2615 62.0314 9.53096C62.457 8.81851 63.0721 8.23826 63.8081 7.85491C64.6204 7.43469 65.5248 7.22399 66.4392 7.24194C67.3474 7.21891 68.2464 7.43 69.0495 7.85491C69.7628 8.24103 70.3514 8.82241 70.7462 9.53096C71.1478 10.2701 71.3518 11.1003 71.3385 11.9414C71.3511 12.7852 71.1472 13.6181 70.7462 14.3607C70.3527 15.0756 69.7643 15.664 69.0495 16.0575C68.3131 16.4721 67.4297 16.6793 66.3992 16.6793C65.507 16.6954 64.6234 16.5033 63.8185 16.1182C63.0803 15.7598 62.4628 15.1938 62.0417 14.4895C61.6124 13.7818 61.3982 12.9324 61.3992 11.9414ZM64.2301 11.9606C64.2233 12.3889 64.3198 12.8124 64.5114 13.1955C64.6844 13.5486 64.9474 13.8499 65.2739 14.069C65.5948 14.2835 65.9733 14.3955 66.3592 14.3903C66.7643 14.4009 67.1633 14.2889 67.5037 14.069C67.827 13.8524 68.0834 13.5499 68.244 13.1955C68.4168 12.8049 68.5061 12.3825 68.5061 11.9555C68.5061 11.5284 68.4168 11.106 68.244 10.7154C68.0806 10.3655 67.8246 10.067 67.5037 9.85225C67.163 9.63301 66.7643 9.52108 66.3592 9.53096C65.9734 9.52687 65.5953 9.6388 65.2739 9.85225C64.9498 10.0696 64.6871 10.3669 64.5114 10.7154C64.3181 11.1016 64.2216 11.5289 64.2301 11.9606Z"
        fill="#231F20" />
    <path
        d="M75.3493 7.90648L75.6099 10.3154L75.5492 9.95416C75.7983 9.4407 76.1542 8.98638 76.593 8.62161C76.9924 8.28068 77.435 7.99393 77.9093 7.76878C78.3446 7.56742 78.6748 7.47266 78.9028 7.47266L78.7547 10.2858C78.1769 10.1905 77.5839 10.3005 77.0787 10.5967C76.6195 10.8804 76.2452 11.2824 75.9949 11.7605C75.7479 12.2152 75.6167 12.7237 75.6129 13.2411V16.6806H72.819V7.90648H75.3493Z"
        fill="#231F20" />
    <path
        d="M85.2532 16.678C84.1823 16.678 83.2751 16.4772 82.5319 16.0754C81.8151 15.6988 81.2249 15.1195 80.8351 14.4097C80.4363 13.6556 80.236 12.8123 80.2532 11.9593C80.2431 11.1133 80.4803 10.2827 80.9358 9.56964C81.3925 8.85949 82.0209 8.27593 82.7629 7.87286C83.5451 7.44721 84.4235 7.22952 85.3139 7.24064C86.5715 7.24064 87.6079 7.60537 88.4232 8.33481C89.2385 9.06426 89.7642 10.1184 90.0001 11.4974L83.173 13.6665L82.5496 12.14L87.4889 10.4743L86.9071 10.7349C86.7996 10.3857 86.6026 10.0707 86.3356 9.82134C86.0602 9.56076 85.6486 9.42898 85.1007 9.42898C84.7149 9.4224 84.3351 9.52505 84.0051 9.7251C83.6885 9.92241 83.4371 10.2088 83.2825 10.5483C83.1072 10.9432 83.0218 11.372 83.0323 11.8039C83.0148 12.2799 83.1166 12.7527 83.3284 13.1794C83.5145 13.5324 83.801 13.8225 84.1517 14.0129C84.5899 14.2415 85.086 14.3353 85.5775 14.2824C85.7695 14.2648 85.9586 14.223 86.1401 14.158C86.4632 14.0436 86.7729 13.8947 87.064 13.7139L88.3077 15.803C87.8294 16.075 87.3211 16.2906 86.7931 16.4456C86.2936 16.5964 85.775 16.6747 85.2532 16.678Z"
        fill="#231F20" />
    <path
        d="M7.85293 10.3018C7.85103 10.3018 7.84922 10.3025 7.84788 10.3039L2.16087 15.9909C1.36447 16.7873 1.92851 18.149 3.05479 18.149H5.76292C6.09813 18.149 6.41963 18.0158 6.6567 17.7788L10.1008 14.3358C10.5945 13.8422 10.5947 13.0419 10.1011 12.5481L7.85799 10.3039C7.85665 10.3025 7.85483 10.3018 7.85293 10.3018Z"
        fill="#896BF0" />
    <path
        d="M20.1555 14.2258C19.4439 13.5143 19.9266 12.1541 20.8204 11.6916C21.3771 11.4036 21.8901 11.0279 22.3381 10.574C23.4117 9.48618 24.0312 8.03064 24.071 6.50275C24.1108 4.97486 23.5677 3.48908 22.5521 2.3469C21.5365 1.20472 20.1244 0.4917 18.6024 0.352539H8.3914C8.38851 0.352539 8.38617 0.354884 8.38617 0.357776C8.38617 0.359165 8.38672 0.360497 8.3877 0.361479L12.6903 4.66408C12.7735 4.7474 12.8864 4.79426 13.0042 4.79437H16.4436C17.4578 4.82398 17.56 4.79437 17.9879 4.79437C18.4131 4.78557 18.8246 4.94481 19.1331 5.23753C19.4416 5.53025 19.6223 5.93282 19.6358 6.35789C19.6378 6.5664 19.5984 6.77323 19.52 6.96644C19.4415 7.15964 19.3256 7.33539 19.1788 7.48352C19.0321 7.63166 18.8574 7.74924 18.6649 7.82948C18.4725 7.90972 18.266 7.95103 18.0575 7.95102H14.0599C13.9421 7.95092 13.8292 7.90405 13.746 7.82073L6.64804 0.724207C6.41096 0.487179 6.08945 0.354021 5.7542 0.354021H3.05231C1.926 0.354021 1.36197 1.71582 2.15844 2.5122L11.8738 12.2263C11.8922 12.2448 11.9026 12.2701 11.9026 12.2962C11.9026 12.35 11.9462 12.3943 12 12.3943C12.0258 12.3943 12.0506 12.4046 12.0688 12.4228L17.4356 17.7813C17.6727 18.018 17.9939 18.1509 18.3289 18.1509H21.0319C22.1588 18.1509 22.7225 16.788 21.925 15.992L20.1555 14.2258Z"
        fill="#896BF0" />
</svg>