<svg width="20" height="20" viewBox="0 0 20 20" fill="none" xmlns="http://www.w3.org/2000/svg">
<path d="M10.0009 16.2222C9.57309 16.2222 9.20689 16.0699 8.90226 15.7653C8.59763 15.4606 8.44531 15.0944 8.44531 14.6667C8.44531 14.2389 8.59763 13.8727 8.90226 13.568C9.20689 13.2634 9.57309 13.1111 10.0009 13.1111C10.4286 13.1111 10.7948 13.2634 11.0995 13.568C11.4041 13.8727 11.5564 14.2389 11.5564 14.6667C11.5564 15.0944 11.4041 15.4606 11.0995 15.7653C10.7948 16.0699 10.4286 16.2222 10.0009 16.2222ZM10.0009 11.5555C9.57309 11.5555 9.20689 11.4032 8.90226 11.0986C8.59763 10.794 8.44531 10.4278 8.44531 9.99999C8.44531 9.57222 8.59763 9.20601 8.90226 8.90138C9.20689 8.59675 9.57309 8.44444 10.0009 8.44444C10.4286 8.44444 10.7948 8.59675 11.0995 8.90138C11.4041 9.20601 11.5564 9.57222 11.5564 9.99999C11.5564 10.4278 11.4041 10.794 11.0995 11.0986C10.7948 11.4032 10.4286 11.5555 10.0009 11.5555ZM10.0009 6.88888C9.57309 6.88888 9.20689 6.73657 8.90226 6.43194C8.59763 6.12731 8.44531 5.7611 8.44531 5.33333C8.44531 4.90555 8.59763 4.53935 8.90226 4.23472C9.20689 3.93009 9.57309 3.77777 10.0009 3.77777C10.4286 3.77777 10.7948 3.93009 11.0995 4.23472C11.4041 4.53935 11.5564 4.90555 11.5564 5.33333C11.5564 5.7611 11.4041 6.12731 11.0995 6.43194C10.7948 6.73657 10.4286 6.88888 10.0009 6.88888Z" fill="#1C1B1F"/>
</svg>
