<svg xmlns="http://www.w3.org/2000/svg" width="16" height="17" viewBox="0 0 16 17" fill="none">
  <mask id="mask0_3939_399" style="mask-type:alpha" maskUnits="userSpaceOnUse" x="0" y="0" width="16" height="17">
    <rect y="0.5" width="16" height="16" fill="#D9D9D9"/>
  </mask>
  <g mask="url(#mask0_3939_399)">
    <path d="M7.33317 8.40032L6.08317 9.65032C5.94984 9.78366 5.7915 9.84755 5.60817 9.84199C5.42484 9.83643 5.2665 9.76699 5.13317 9.63366C5.01095 9.50032 4.94706 9.34477 4.9415 9.16699C4.93595 8.98921 4.99984 8.83366 5.13317 8.70032L7.53317 6.30032C7.59984 6.23366 7.67206 6.18644 7.74984 6.15866C7.82761 6.13088 7.91095 6.11699 7.99984 6.11699C8.08872 6.11699 8.17206 6.13088 8.24984 6.15866C8.32761 6.18644 8.39984 6.23366 8.4665 6.30032L10.8665 8.70032C10.9998 8.83366 11.0637 8.98921 11.0582 9.16699C11.0526 9.34477 10.9887 9.50032 10.8665 9.63366C10.7332 9.76699 10.5748 9.83643 10.3915 9.84199C10.2082 9.84755 10.0498 9.78366 9.9165 9.65032L8.6665 8.40032V13.167C8.6665 13.3559 8.60261 13.5142 8.47484 13.642C8.34706 13.7698 8.18872 13.8337 7.99984 13.8337C7.81095 13.8337 7.65261 13.7698 7.52484 13.642C7.39706 13.5142 7.33317 13.3559 7.33317 13.167V8.40032ZM2.6665 5.83366V4.50033C2.6665 4.13366 2.79706 3.81977 3.05817 3.55866C3.31928 3.29755 3.63317 3.16699 3.99984 3.16699H11.9998C12.3665 3.16699 12.6804 3.29755 12.9415 3.55866C13.2026 3.81977 13.3332 4.13366 13.3332 4.50033V5.83366C13.3332 6.02255 13.2693 6.18088 13.1415 6.30866C13.0137 6.43644 12.8554 6.50032 12.6665 6.50032C12.4776 6.50032 12.3193 6.43644 12.1915 6.30866C12.0637 6.18088 11.9998 6.02255 11.9998 5.83366V4.50033H3.99984V5.83366C3.99984 6.02255 3.93595 6.18088 3.80817 6.30866C3.68039 6.43644 3.52206 6.50032 3.33317 6.50032C3.14428 6.50032 2.98595 6.43644 2.85817 6.30866C2.73039 6.18088 2.6665 6.02255 2.6665 5.83366Z" fill="white"/>
  </g>
</svg>