<svg xmlns="http://www.w3.org/2000/svg" width="16" height="17" viewBox="0 0 16 17" fill="none">
  <mask id="mask0_3939_394" style="mask-type:alpha" maskUnits="userSpaceOnUse" x="0" y="0" width="16" height="17">
    <rect y="0.5" width="16" height="16" fill="#D9D9D9"/>
  </mask>
  <g mask="url(#mask0_3939_394)">
    <path d="M3.33333 14.5C2.96667 14.5 2.65278 14.3694 2.39167 14.1083C2.13056 13.8472 2 13.5333 2 13.1667V3.83333C2 3.46667 2.13056 3.15278 2.39167 2.89167C2.65278 2.63056 2.96667 2.5 3.33333 2.5H10.7833C10.9611 2.5 11.1306 2.53333 11.2917 2.6C11.4528 2.66667 11.5944 2.76111 11.7167 2.88333L13.6167 4.78333C13.7389 4.90556 13.8333 5.04722 13.9 5.20833C13.9667 5.36944 14 5.53889 14 5.71667V13.1667C14 13.5333 13.8694 13.8472 13.6083 14.1083C13.3472 14.3694 13.0333 14.5 12.6667 14.5H3.33333ZM12.6667 5.73333L10.7667 3.83333H3.33333V13.1667H12.6667V5.73333ZM8 12.5C8.55556 12.5 9.02778 12.3056 9.41667 11.9167C9.80556 11.5278 10 11.0556 10 10.5C10 9.94444 9.80556 9.47222 9.41667 9.08333C9.02778 8.69444 8.55556 8.5 8 8.5C7.44444 8.5 6.97222 8.69444 6.58333 9.08333C6.19444 9.47222 6 9.94444 6 10.5C6 11.0556 6.19444 11.5278 6.58333 11.9167C6.97222 12.3056 7.44444 12.5 8 12.5ZM4.66667 7.16667H9.33333C9.52222 7.16667 9.68056 7.10278 9.80833 6.975C9.93611 6.84722 10 6.68889 10 6.5V5.16667C10 4.97778 9.93611 4.81944 9.80833 4.69167C9.68056 4.56389 9.52222 4.5 9.33333 4.5H4.66667C4.47778 4.5 4.31944 4.56389 4.19167 4.69167C4.06389 4.81944 4 4.97778 4 5.16667V6.5C4 6.68889 4.06389 6.84722 4.19167 6.975C4.31944 7.10278 4.47778 7.16667 4.66667 7.16667Z" fill="white"/>
  </g>
</svg>