<svg xmlns="http://www.w3.org/2000/svg" width="16" height="26" viewBox="0 0 16 26" fill="none">
<path d="M4.57143 15.8571V14.1428H11.4286V15.8571H4.57143ZM3.42857 12.4286V10.7143H12.5714V12.4286H3.42857ZM2.28571 25.5714C1.65714 25.5714 1.11905 25.3476 0.671429 24.9C0.22381 24.4524 0 23.9143 0 23.2857V2.71427C0 2.0857 0.22381 1.54761 0.671429 1.09999C1.11905 0.652368 1.65714 0.428558 2.28571 0.428558H13.7143C14.3429 0.428558 14.881 0.652368 15.3286 1.09999C15.7762 1.54761 16 2.0857 16 2.71427V23.2857C16 23.9143 15.7762 24.4524 15.3286 24.9C14.881 25.3476 14.3429 25.5714 13.7143 25.5714H2.28571ZM2.28571 22.1428V23.2857H13.7143V22.1428H2.28571ZM2.28571 19.8571H13.7143V6.14284H2.28571V19.8571ZM2.28571 3.85713H13.7143V2.71427H2.28571V3.85713Z" fill="#1C1B1F"/>
</svg>