<svg width="16" height="17" viewBox="0 0 16 17" fill="none" xmlns="http://www.w3.org/2000/svg">
<g id="kid_star">
<mask id="mask0_4171_2050" style="mask-type:alpha" maskUnits="userSpaceOnUse" x="0" y="0" width="16" height="17">
<rect id="Bounding box" y="0.5" width="16" height="16" fill="#D9D9D9"/>
</mask>
<g mask="url(#mask0_4171_2050)">
<path id="kid_star_2" d="M5.44746 5.27977L5.27472 5.33769L2.44449 6.28665C2.27178 6.34692 2.15656 6.43887 2.07309 6.56263C1.97619 6.70632 1.93398 6.84856 1.93398 7.00215C1.93398 7.07629 1.94468 7.15311 1.96832 7.23415C1.9862 7.29546 2.01744 7.36137 2.06923 7.43258L2.07484 7.4403L2.07478 7.44034L3.89145 10.0237L4.00527 10.1855L4.00047 10.3834L3.93381 13.1334L3.93375 13.136C3.92717 13.3657 3.99574 13.532 4.14158 13.6779C4.3033 13.8396 4.46463 13.9021 4.65065 13.9021C4.68664 13.9021 4.73085 13.9003 4.78416 13.8959M5.44746 5.27977L4.83398 14.4938M5.44746 5.27977L5.55883 5.13559L7.42549 2.71892L7.42554 2.71896L7.43065 2.71215C7.50997 2.60638 7.59146 2.54419 7.67393 2.5067C7.77985 2.45856 7.88691 2.43548 8.00065 2.43548C8.11439 2.43548 8.22145 2.45856 8.32737 2.5067C8.40984 2.54419 8.49133 2.60638 8.57065 2.71215L8.5706 2.71218L8.57581 2.71892L10.4425 5.13559L10.5538 5.27977L10.7266 5.33769L13.5599 6.28769L13.567 6.29007L13.5742 6.29228C13.7403 6.3434 13.8549 6.42905 13.9419 6.55379C14.0389 6.69287 14.084 6.83713 14.084 7.00215C14.084 7.0763 14.0733 7.15311 14.0497 7.23415C14.0318 7.29546 14.0005 7.36137 13.9487 7.43258L13.9487 7.43254L13.9436 7.43972L12.1103 10.0397L11.996 10.2018L12.0008 10.4001L12.0675 13.1334L12.0676 13.1359C12.0741 13.3657 12.0056 13.532 11.8597 13.6779L12.284 14.1021M5.44746 5.27977L12.6673 13.1188C12.6784 13.5077 12.5507 13.8355 12.284 14.1021M4.78416 13.8959L4.83398 14.4938M4.78416 13.8959C4.78416 13.8959 4.78415 13.8959 4.78415 13.8959L4.83398 14.4938M4.78416 13.8959C4.79098 13.8953 4.79498 13.8946 4.79665 13.8942M4.83398 14.4938C4.90065 14.4883 4.96176 14.4744 5.01732 14.4521L8.00065 13.6188L10.984 14.4521M4.79665 13.8942L4.79449 13.8951C4.79653 13.8942 4.79761 13.894 4.79757 13.894C4.79755 13.894 4.79725 13.8941 4.79665 13.8942ZM4.79665 13.8942L4.82463 13.883L4.8559 13.8743L7.83923 13.0409L8.00065 12.9958L8.16207 13.0409L11.1095 13.8643M11.1095 13.8643C11.0977 13.8625 11.0855 13.8607 11.073 13.8588L10.984 14.4521M11.1095 13.8643L11.1454 13.8743L10.984 14.4521M11.1095 13.8643C11.2018 13.878 11.2727 13.8882 11.3234 13.8951C11.3455 13.8982 11.3622 13.9003 11.3742 13.9018M10.984 14.4521C11.2062 14.4855 11.3284 14.5021 11.3507 14.5021C11.7062 14.5021 12.0173 14.3688 12.284 14.1021M12.284 14.1021L11.8597 13.6779C11.7049 13.8327 11.5504 13.8967 11.3742 13.9018M11.3742 13.9018C11.3664 13.902 11.3585 13.9021 11.3507 13.9021C11.366 13.9021 11.3773 13.9028 11.3812 13.903L11.3904 13.9037L11.3909 13.9037C11.3909 13.9037 11.3888 13.9035 11.384 13.903C11.3812 13.9026 11.3779 13.9023 11.3742 13.9018Z" fill="#EA9F4B" stroke="black" stroke-width="1.2"/>
</g>
</g>
</svg>
