<svg xmlns="http://www.w3.org/2000/svg" width="24" height="25" viewBox="0 0 24 25" fill="none">
  <mask id="mask0_2518_525" style="mask-type:alpha" maskUnits="userSpaceOnUse" x="0" y="0" width="24" height="25">
    <rect y="0.404602" width="24" height="24" fill="#D9D9D9"/>
  </mask>
  <g mask="url(#mask0_2518_525)">
    <path d="M11 19.4046H13V15.2296L14.6 16.8296L16 15.4046L12 11.4046L8 15.4046L9.425 16.8046L11 15.2296V19.4046ZM6 22.4046C5.45 22.4046 4.97917 22.2088 4.5875 21.8171C4.19583 21.4254 4 20.9546 4 20.4046V4.4046C4 3.8546 4.19583 3.38377 4.5875 2.9921C4.97917 2.60044 5.45 2.4046 6 2.4046H14L20 8.4046V20.4046C20 20.9546 19.8042 21.4254 19.4125 21.8171C19.0208 22.2088 18.55 22.4046 18 22.4046H6ZM13 9.4046V4.4046H6V20.4046H18V9.4046H13Z" fill="#1C1B1F"/>
  </g>
</svg>