<svg xmlns="http://www.w3.org/2000/svg" width="16" height="17" viewBox="0 0 16 17" fill="none">
<mask id="mask0_3939_389" style="mask-type:alpha" maskUnits="userSpaceOnUse" x="0" y="0" width="16" height="17">
<rect y="0.5" width="16" height="16" fill="#D9D9D9"/>
</mask>
<g mask="url(#mask0_3939_389)">
<path d="M8.0001 11.167C8.83343 11.167 9.54177 10.8753 10.1251 10.292C10.7084 9.70866 11.0001 9.00033 11.0001 8.16699C11.0001 7.33366 10.7084 6.62533 10.1251 6.04199C9.54177 5.45866 8.83343 5.16699 8.0001 5.16699C7.16677 5.16699 6.45843 5.45866 5.8751 6.04199C5.29177 6.62533 5.0001 7.33366 5.0001 8.16699C5.0001 9.00033 5.29177 9.70866 5.8751 10.292C6.45843 10.8753 7.16677 11.167 8.0001 11.167ZM8.0001 9.96699C7.5001 9.96699 7.0751 9.79199 6.7251 9.44199C6.3751 9.09199 6.2001 8.66699 6.2001 8.16699C6.2001 7.66699 6.3751 7.24199 6.7251 6.89199C7.0751 6.54199 7.5001 6.36699 8.0001 6.36699C8.5001 6.36699 8.9251 6.54199 9.2751 6.89199C9.6251 7.24199 9.8001 7.66699 9.8001 8.16699C9.8001 8.66699 9.6251 9.09199 9.2751 9.44199C8.9251 9.79199 8.5001 9.96699 8.0001 9.96699ZM8.0001 13.167C6.51121 13.167 5.15288 12.767 3.9251 11.967C2.69732 11.167 1.72788 10.1114 1.01676 8.80033C0.961209 8.70033 0.919542 8.59755 0.891764 8.49199C0.863987 8.38644 0.850098 8.2781 0.850098 8.16699C0.850098 8.05588 0.863987 7.94755 0.891764 7.84199C0.919542 7.73644 0.961209 7.63366 1.01676 7.53366C1.72788 6.22255 2.69732 5.16699 3.9251 4.36699C5.15288 3.56699 6.51121 3.16699 8.0001 3.16699C9.48899 3.16699 10.8473 3.56699 12.0751 4.36699C13.3029 5.16699 14.2723 6.22255 14.9834 7.53366C15.039 7.63366 15.0807 7.73644 15.1084 7.84199C15.1362 7.94755 15.1501 8.05588 15.1501 8.16699C15.1501 8.2781 15.1362 8.38644 15.1084 8.49199C15.0807 8.59755 15.039 8.70033 14.9834 8.80033C14.2723 10.1114 13.3029 11.167 12.0751 11.967C10.8473 12.767 9.48899 13.167 8.0001 13.167ZM8.0001 11.8337C9.25566 11.8337 10.4084 11.5031 11.4584 10.842C12.5084 10.1809 13.3112 9.28921 13.8668 8.16699C13.3112 7.04477 12.5084 6.1531 11.4584 5.49199C10.4084 4.83088 9.25566 4.50033 8.0001 4.50033C6.74454 4.50033 5.59177 4.83088 4.54176 5.49199C3.49176 6.1531 2.68899 7.04477 2.13343 8.16699C2.68899 9.28921 3.49176 10.1809 4.54176 10.842C5.59177 11.5031 6.74454 11.8337 8.0001 11.8337Z" fill="white"/>
</g>
</svg>