<svg width="117" height="41" viewBox="0 0 117 41" fill="none" xmlns="http://www.w3.org/2000/svg">
<path d="M10.8 20.0795L14.12 14.5195H19.68L12.76 24.1195L10.8 20.0795ZM20.64 31.9995H13.88L0.4 14.5195H7.28L20.64 31.9995ZM10.08 26.3995L6.16 31.9995H0.6L7.52 22.6395L10.08 26.3995ZM34.8947 32.4795C33.8547 32.4795 32.828 32.2928 31.8147 31.9195C30.828 31.5195 30.0014 30.9595 29.3347 30.2395L29.4947 28.5995V40.3995H23.9347V14.1195H28.7347L29.5347 17.5195L29.0947 16.3195C30.0014 15.5462 31.0147 14.9062 32.1347 14.3995C33.2547 13.8928 34.548 13.6395 36.0147 13.6395C37.6414 13.6395 39.0947 14.0262 40.3747 14.7995C41.6547 15.5462 42.6547 16.6395 43.3747 18.0795C44.1214 19.4928 44.4947 21.1995 44.4947 23.1995C44.4947 25.1728 44.0814 26.8528 43.2547 28.2395C42.428 29.6262 41.2947 30.6795 39.8547 31.3995C38.4147 32.1195 36.7614 32.4795 34.8947 32.4795ZM33.7747 28.0795C34.6814 28.0795 35.508 27.8795 36.2547 27.4795C37.028 27.0795 37.6414 26.5195 38.0947 25.7995C38.5747 25.0528 38.8147 24.2128 38.8147 23.2795C38.8147 22.2928 38.6014 21.4395 38.1747 20.7195C37.7747 19.9728 37.2147 19.3995 36.4947 18.9995C35.8014 18.5728 35.028 18.3595 34.1747 18.3595C33.428 18.3595 32.7614 18.4662 32.1747 18.6795C31.6147 18.8662 31.108 19.1595 30.6547 19.5595C30.228 19.9328 29.8547 20.4128 29.5347 20.9995V25.2795C29.748 25.8395 30.0547 26.3328 30.4547 26.7595C30.8547 27.1862 31.3347 27.5195 31.8947 27.7595C32.4814 27.9728 33.108 28.0795 33.7747 28.0795ZM48.8956 0.43951H54.4956V31.9995H48.8956V0.43951ZM58.9028 23.0395C58.9028 21.2528 59.3161 19.6528 60.1428 18.2395C60.9961 16.8262 62.1828 15.7195 63.7028 14.9195C65.2228 14.0928 66.9695 13.6795 68.9428 13.6795C70.9428 13.6795 72.6761 14.0928 74.1428 14.9195C75.6095 15.7195 76.7295 16.8262 77.5028 18.2395C78.3028 19.6528 78.7028 21.2528 78.7028 23.0395C78.7028 24.8262 78.3028 26.4395 77.5028 27.8795C76.7295 29.2928 75.6095 30.4128 74.1428 31.2395C72.6761 32.0662 70.9161 32.4795 68.8628 32.4795C66.9428 32.4795 65.2228 32.1062 63.7028 31.3595C62.2095 30.6128 61.0361 29.5328 60.1828 28.1195C59.3295 26.7062 58.9028 25.0128 58.9028 23.0395ZM64.5428 23.0795C64.5428 23.9862 64.7295 24.8128 65.1028 25.5595C65.4761 26.2795 65.9828 26.8528 66.6228 27.2795C67.2628 27.7062 67.9828 27.9195 68.7828 27.9195C69.6628 27.9195 70.4228 27.7062 71.0628 27.2795C71.7028 26.8528 72.1961 26.2795 72.5428 25.5595C72.8895 24.8128 73.0628 23.9862 73.0628 23.0795C73.0628 22.1462 72.8895 21.3195 72.5428 20.5995C72.1961 19.8795 71.7028 19.3062 71.0628 18.8795C70.4228 18.4528 69.6628 18.2395 68.7828 18.2395C67.9828 18.2395 67.2628 18.4528 66.6228 18.8795C65.9828 19.3062 65.4761 19.8795 65.1028 20.5995C64.7295 21.3195 64.5428 22.1462 64.5428 23.0795ZM88.1544 14.5195L88.6744 19.3195L88.5544 18.5995C89.061 17.5595 89.7544 16.6795 90.6344 15.9595C91.5144 15.2128 92.381 14.6395 93.2344 14.2395C94.1144 13.8395 94.781 13.6395 95.2344 13.6395L94.9544 19.2395C93.6477 19.0795 92.5277 19.2928 91.5944 19.8795C90.661 20.4662 89.941 21.2395 89.4344 22.1995C88.9277 23.1595 88.6744 24.1462 88.6744 25.1595V31.9995H83.1144V14.5195H88.1544ZM107.339 32.4795C105.206 32.4795 103.393 32.0795 101.899 31.2795C100.433 30.4795 99.3127 29.3728 98.5394 27.9595C97.766 26.5462 97.3794 24.9195 97.3794 23.0795C97.3794 21.3195 97.8327 19.7328 98.7394 18.3195C99.646 16.9062 100.859 15.7862 102.379 14.9595C103.899 14.1062 105.593 13.6795 107.459 13.6795C109.966 13.6795 112.019 14.4128 113.619 15.8795C115.246 17.3195 116.299 19.4128 116.779 22.1595L103.179 26.4795L101.939 23.4395L111.779 20.1195L110.619 20.6395C110.406 19.9462 110.019 19.3462 109.459 18.8395C108.926 18.3062 108.113 18.0395 107.019 18.0395C106.193 18.0395 105.459 18.2395 104.819 18.6395C104.206 19.0128 103.726 19.5595 103.379 20.2795C103.059 20.9728 102.899 21.7995 102.899 22.7595C102.899 23.8528 103.099 24.7728 103.499 25.5195C103.899 26.2395 104.446 26.7862 105.139 27.1595C105.833 27.5328 106.606 27.7195 107.459 27.7195C108.073 27.7195 108.659 27.6128 109.219 27.3995C109.806 27.1862 110.379 26.9062 110.939 26.5595L113.419 30.7195C112.486 31.2528 111.473 31.6795 110.379 31.9995C109.313 32.3195 108.299 32.4795 107.339 32.4795Z" fill="white"/>
</svg>
