<svg width="43" height="32" viewBox="0 0 43 32" fill="none" xmlns="http://www.w3.org/2000/svg">
<path d="M13.9611 17.6883C13.9578 17.6883 13.9545 17.6897 13.9521 17.692L2.16337 29.4808C1.36697 30.2772 1.93101 31.6389 3.05729 31.6389H10.6527C10.988 31.6389 11.3095 31.5058 11.5465 31.2688L18.6527 24.1649C19.1464 23.6713 19.1466 22.8709 18.653 22.3771L13.9701 17.692C13.9677 17.6897 13.9645 17.6883 13.9611 17.6883Z" fill="#896BF0"/>
<path d="M35.832 24.6636L34.5595 23.3911C33.7799 22.6115 34.3036 21.1832 35.3538 20.8475C36.9882 20.3251 38.487 19.4128 39.7121 18.1715C41.6208 16.2376 42.7222 13.65 42.7929 10.9337C42.8636 8.21747 41.8982 5.57607 40.0927 3.54552C38.2872 1.51498 35.7768 0.247397 33.0709 0H14.9181C14.9129 0 14.9087 0.00416806 14.9087 0.00930962C14.9087 0.0117787 14.9097 0.0141466 14.9115 0.0158925L22.5605 7.66495C22.7085 7.81308 22.9092 7.89639 23.1186 7.89658H29.2331C31.0362 7.94922 31.2178 7.89658 31.9785 7.89658C32.7344 7.88095 33.466 8.16404 34.0144 8.68443C34.5629 9.20481 34.884 9.9205 34.9081 10.6762C34.9116 11.0469 34.8416 11.4146 34.7022 11.758C34.5627 12.1015 34.3566 12.414 34.0957 12.6773C33.8348 12.9406 33.5243 13.1497 33.1821 13.2923C32.84 13.435 32.4729 13.5084 32.1022 13.5084H24.9953C24.7859 13.5082 24.5852 13.4249 24.4373 13.2768L11.5308 0.372821C11.2937 0.135792 10.9722 0.00263476 10.6369 0.00263476H3.05231C1.926 0.00263476 1.36197 1.36443 2.15845 2.16081L21.1089 21.109C21.1418 21.1418 21.1602 21.1868 21.1602 21.2332C21.1602 21.3288 21.2377 21.4076 21.3333 21.4076C21.3792 21.4076 21.4232 21.4258 21.4557 21.4582L31.2846 31.272C31.5216 31.5087 31.8429 31.6416 32.1778 31.6416H39.767C40.8939 31.6416 41.4577 30.2787 40.6601 29.4826L35.832 24.6636Z" fill="#896BF0"/>
</svg>
