<svg width="82" height="29" viewBox="0 0 82 29" fill="none" xmlns="http://www.w3.org/2000/svg">
<path d="M7.56 14.656L9.884 10.764H13.776L8.932 17.484L7.56 14.656ZM14.448 23H9.716L0.28 10.764H5.096L14.448 23ZM7.056 19.08L4.312 23H0.42L5.264 16.448L7.056 19.08ZM24.4263 23.336C23.6983 23.336 22.9796 23.2053 22.2703 22.944C21.5796 22.664 21.0009 22.272 20.5343 21.768L20.6463 20.62V28.88H16.7543V10.484H20.1143L20.6743 12.864L20.3663 12.024C21.0009 11.4827 21.7103 11.0347 22.4943 10.68C23.2783 10.3253 24.1836 10.148 25.2103 10.148C26.3489 10.148 27.3663 10.4187 28.2623 10.96C29.1583 11.4827 29.8583 12.248 30.3623 13.256C30.8849 14.2453 31.1463 15.44 31.1463 16.84C31.1463 18.2213 30.8569 19.3973 30.2783 20.368C29.6996 21.3387 28.9063 22.076 27.8983 22.58C26.8903 23.084 25.7329 23.336 24.4263 23.336ZM23.6423 20.256C24.2769 20.256 24.8556 20.116 25.3783 19.836C25.9196 19.556 26.3489 19.164 26.6663 18.66C27.0023 18.1373 27.1703 17.5493 27.1703 16.896C27.1703 16.2053 27.0209 15.608 26.7223 15.104C26.4423 14.5813 26.0503 14.18 25.5463 13.9C25.0609 13.6013 24.5196 13.452 23.9223 13.452C23.3996 13.452 22.9329 13.5267 22.5223 13.676C22.1303 13.8067 21.7756 14.012 21.4583 14.292C21.1596 14.5533 20.8983 14.8893 20.6743 15.3V18.296C20.8236 18.688 21.0383 19.0333 21.3183 19.332C21.5983 19.6307 21.9343 19.864 22.3263 20.032C22.7369 20.1813 23.1756 20.256 23.6423 20.256ZM34.2269 0.907999H38.1469V23H34.2269V0.907999ZM41.232 16.728C41.232 15.4773 41.5213 14.3573 42.1 13.368C42.6973 12.3787 43.528 11.604 44.592 11.044C45.656 10.4653 46.8786 10.176 48.26 10.176C49.66 10.176 50.8733 10.4653 51.9 11.044C52.9266 11.604 53.7106 12.3787 54.252 13.368C54.812 14.3573 55.092 15.4773 55.092 16.728C55.092 17.9787 54.812 19.108 54.252 20.116C53.7106 21.1053 52.9266 21.8893 51.9 22.468C50.8733 23.0467 49.6413 23.336 48.204 23.336C46.86 23.336 45.656 23.0747 44.592 22.552C43.5466 22.0293 42.7253 21.2733 42.128 20.284C41.5306 19.2947 41.232 18.1093 41.232 16.728ZM45.18 16.756C45.18 17.3907 45.3106 17.9693 45.572 18.492C45.8333 18.996 46.188 19.3973 46.636 19.696C47.084 19.9947 47.588 20.144 48.148 20.144C48.764 20.144 49.296 19.9947 49.744 19.696C50.192 19.3973 50.5373 18.996 50.78 18.492C51.0226 17.9693 51.144 17.3907 51.144 16.756C51.144 16.1027 51.0226 15.524 50.78 15.02C50.5373 14.516 50.192 14.1147 49.744 13.816C49.296 13.5173 48.764 13.368 48.148 13.368C47.588 13.368 47.084 13.5173 46.636 13.816C46.188 14.1147 45.8333 14.516 45.572 15.02C45.3106 15.524 45.18 16.1027 45.18 16.756ZM61.7081 10.764L62.0721 14.124L61.9881 13.62C62.3427 12.892 62.8281 12.276 63.4441 11.772C64.0601 11.2493 64.6667 10.848 65.2641 10.568C65.8801 10.288 66.3467 10.148 66.6641 10.148L66.4681 14.068C65.5534 13.956 64.7694 14.1053 64.1161 14.516C63.4627 14.9267 62.9587 15.468 62.6041 16.14C62.2494 16.812 62.0721 17.5027 62.0721 18.212V23H58.1801V10.764H61.7081ZM75.1376 23.336C73.6442 23.336 72.3749 23.056 71.3296 22.496C70.3029 21.936 69.5189 21.1613 68.9776 20.172C68.4362 19.1827 68.1656 18.044 68.1656 16.756C68.1656 15.524 68.4829 14.4133 69.1176 13.424C69.7522 12.4347 70.6016 11.6507 71.6656 11.072C72.7296 10.4747 73.9149 10.176 75.2216 10.176C76.9762 10.176 78.4136 10.6893 79.5336 11.716C80.6722 12.724 81.4096 14.1893 81.7456 16.112L72.2256 19.136L71.3576 17.008L78.2456 14.684L77.4336 15.048C77.2842 14.5627 77.0136 14.1427 76.6216 13.788C76.2482 13.4147 75.6789 13.228 74.9136 13.228C74.3349 13.228 73.8216 13.368 73.3736 13.648C72.9442 13.9093 72.6082 14.292 72.3656 14.796C72.1416 15.2813 72.0296 15.86 72.0296 16.532C72.0296 17.2973 72.1696 17.9413 72.4496 18.464C72.7296 18.968 73.1122 19.3507 73.5976 19.612C74.0829 19.8733 74.6242 20.004 75.2216 20.004C75.6509 20.004 76.0616 19.9293 76.4536 19.78C76.8642 19.6307 77.2656 19.4347 77.6576 19.192L79.3936 22.104C78.7402 22.4773 78.0309 22.776 77.2656 23C76.5189 23.224 75.8096 23.336 75.1376 23.336Z" fill="#7654EE"/>
</svg>
