<svg xmlns="http://www.w3.org/2000/svg" width="140" height="31" viewBox="0 0 140 31" fill="none">
<path d="M49.0364 24.8413L57.0463 12.2566L59.1231 16.7165L54.5347 24.8413H49.0364ZM49.3405 2.36133H54.992L69.6603 24.8413H63.9434L49.3405 2.36133ZM59.4227 10.6077L64.0651 2.36133H69.435L61.7067 14.4257L59.4227 10.6077Z" fill="#231F20"/>
<path d="M80.3732 24.8383C79.5734 24.8347 78.7812 24.6819 78.0374 24.3878C77.3115 24.1178 76.6579 23.6838 76.1273 23.1197L76.2512 21.8673V30.8773H72.0029V10.8165H75.67L76.2804 13.4136L75.9448 12.4969C76.6458 11.9009 77.4277 11.4072 78.2671 11.0305C79.202 10.6288 80.2119 10.4314 81.2292 10.4516C82.3975 10.4316 83.549 10.7323 84.5584 11.3211C85.5506 11.9187 86.351 12.7878 86.8649 13.8258C87.4266 14.9161 87.7066 16.2248 87.7051 17.752C87.7036 19.2792 87.3883 20.5623 86.7591 21.6015C86.1467 22.6414 85.2441 23.4798 84.1619 24.0139C82.9811 24.5817 81.6833 24.8641 80.3732 24.8383ZM79.5195 21.4776C80.1829 21.4872 80.8384 21.3325 81.4274 21.0271C82.0024 20.7265 82.4874 20.2788 82.833 19.7297C83.1922 19.1581 83.3776 18.4945 83.3668 17.8195C83.3829 17.1326 83.2199 16.4534 82.8938 15.8486C82.5913 15.3012 82.146 14.846 81.6054 14.5314C81.0648 14.2169 80.449 14.0548 79.8236 14.0624C79.3107 14.052 78.7998 14.1282 78.3122 14.2876C77.8851 14.435 77.491 14.6645 77.1522 14.9634C76.798 15.2806 76.5028 15.6581 76.2804 16.0784V19.3467C76.4382 19.7648 76.677 20.1475 76.9832 20.473C77.2978 20.8036 77.6827 21.0592 78.1095 21.2208C78.5591 21.3944 79.0375 21.4815 79.5195 21.4776Z" fill="#231F20"/>
<path d="M89.9578 0.738281H94.2375V24.8401H89.9578V0.738281Z" fill="#231F20"/>
<path d="M96.4887 17.6296C96.468 16.3423 96.8007 15.0739 97.4505 13.9625C98.098 12.8786 99.0338 11.9959 100.154 11.4127C101.389 10.7734 102.765 10.4528 104.156 10.4801C105.538 10.4451 106.906 10.7662 108.127 11.4127C109.213 12.0001 110.108 12.8846 110.709 13.9625C111.32 15.0869 111.63 16.35 111.61 17.6296C111.629 18.9133 111.319 20.1805 110.709 21.3102C110.11 22.3977 109.215 23.2929 108.127 23.8915C107.007 24.5222 105.663 24.8376 104.095 24.8376C102.738 24.862 101.394 24.5697 100.169 23.9839C99.0463 23.4386 98.1069 22.5775 97.4663 21.5061C96.8131 20.4294 96.4872 19.1372 96.4887 17.6296ZM100.795 17.6589C100.785 18.3103 100.932 18.9547 101.223 19.5374C101.487 20.0747 101.887 20.5331 102.384 20.8664C102.872 21.1927 103.447 21.3631 104.035 21.3552C104.651 21.3714 105.258 21.201 105.776 20.8664C106.268 20.5369 106.658 20.0766 106.902 19.5374C107.165 18.9433 107.301 18.3007 107.301 17.651C107.301 17.0012 107.165 16.3587 106.902 15.7645C106.653 15.2322 106.264 14.778 105.776 14.4513C105.257 14.1177 104.651 13.9475 104.035 13.9625C103.448 13.9563 102.872 14.1266 102.384 14.4513C101.89 14.782 101.491 15.2343 101.223 15.7645C100.929 16.352 100.783 17.0021 100.795 17.6589Z" fill="#231F20"/>
<path d="M117.711 11.492L118.108 15.1568L118.015 14.6072C118.394 13.8261 118.936 13.1349 119.603 12.58C120.211 12.0613 120.884 11.6251 121.606 11.2825C122.268 10.9762 122.77 10.832 123.117 10.832L122.892 15.1118C122.013 14.9667 121.111 15.1341 120.342 15.5848C119.644 16.0163 119.074 16.6279 118.693 17.3553C118.318 18.047 118.118 18.8206 118.112 19.6078V24.8403H113.862V11.492H117.711Z" fill="#231F20"/>
<path d="M132.779 24.8376C131.149 24.8376 129.769 24.532 128.639 23.9208C127.548 23.3478 126.65 22.4665 126.057 21.3867C125.45 20.2394 125.146 18.9565 125.172 17.6588C125.157 16.3717 125.517 15.1081 126.21 14.0233C126.905 12.9429 127.861 12.0551 128.99 11.4419C130.18 10.7944 131.516 10.4632 132.871 10.4801C134.784 10.4801 136.361 11.035 137.601 12.1447C138.842 13.2544 139.641 14.8582 140 16.9561L129.614 20.256L128.666 17.9336L136.18 15.3996L135.295 15.796C135.131 15.2648 134.831 14.7856 134.425 14.4062C134.006 14.0098 133.38 13.8093 132.547 13.8093C131.96 13.7993 131.382 13.9555 130.88 14.2598C130.398 14.56 130.016 14.9957 129.781 15.5122C129.514 16.1129 129.384 16.7653 129.4 17.4223C129.373 18.1465 129.528 18.8658 129.85 19.5149C130.134 20.052 130.569 20.4933 131.103 20.7831C131.77 21.1308 132.524 21.2735 133.272 21.193C133.564 21.1662 133.852 21.1027 134.128 21.0038C134.619 20.8297 135.091 20.6032 135.533 20.3281L137.426 23.5063C136.698 23.9201 135.925 24.2481 135.121 24.4839C134.361 24.7134 133.572 24.8325 132.779 24.8376Z" fill="#231F20"/>
<path d="M11.9472 15.1367C11.9443 15.1367 11.9415 15.1379 11.9395 15.1399L0.327819 26.7516C0.208467 26.8709 0.292997 27.075 0.461785 27.075H9.48555C9.53579 27.075 9.58397 27.055 9.6195 27.0195L16.593 20.0482C16.667 19.9742 16.667 19.8543 16.593 19.7803L11.9549 15.1399C11.9528 15.1379 11.95 15.1367 11.9472 15.1367Z" fill="#7654EE"/>
<path d="M30.6633 21.1059L28.1315 18.5741C28.0146 18.4573 28.0929 18.2549 28.2575 18.2406C30.4205 18.0532 32.452 17.1022 33.9837 15.5503C35.6171 13.8953 36.5596 11.681 36.6201 9.35654C36.6805 7.03211 35.8544 4.77173 34.3094 3.03409C32.7643 1.29645 30.616 0.211711 28.3004 0H12.7661C12.7617 0 12.7582 0.00356682 12.7582 0.00796671C12.7582 0.0100796 12.759 0.012106 12.7605 0.0136L19.3062 6.55929C19.4328 6.68606 19.6046 6.75735 19.7837 6.75751H25.0163C26.5592 6.80256 26.7147 6.75751 27.3657 6.75751C28.0125 6.74413 28.6385 6.98639 29.1079 7.43171C29.5773 7.87703 29.8521 8.48948 29.8727 9.13615C29.8757 9.45337 29.8158 9.76803 29.6964 10.062C29.5771 10.3559 29.4007 10.6233 29.1774 10.8486C28.9541 11.074 28.6884 11.2529 28.3956 11.3749C28.1028 11.497 27.7887 11.5599 27.4715 11.5598H21.3898C21.2106 11.5597 21.0388 11.4884 20.9122 11.3616L9.6061 0.0577319C9.57057 0.0222099 9.52238 0.0022547 9.47214 0.0022547H0.457431C0.288637 0.0022547 0.20411 0.206339 0.323473 0.325687L18.064 18.064C18.0921 18.0921 18.1079 18.1306 18.1079 18.1703C18.1079 18.2522 18.1742 18.3196 18.256 18.3196C18.2953 18.3196 18.333 18.3352 18.3607 18.3629L27.0331 27.0219C27.0686 27.0574 27.1168 27.0773 27.167 27.0773H36.188C36.3568 27.0773 36.4413 26.8731 36.3218 26.7538L30.6633 21.1059Z" fill="#7654EE"/>
</svg>